ffmpeg started on 2016-11-27 at 23:08:32
Report written to "Output/NVENCh264/results/ffmpeg/old_town_cross_2160p50llhp4000k.log"
Command line:
Tools/ffmpeg/ffmpeg -benchmark -y -i Input/y4m/old_town_cross_2160p50.y4m -c:v h264_nvenc -preset llhp -b:v 4000k -an Output/NVENCh264/encoded/old_town_cross_2160p50llhp4000k.mkv
ffmpeg version N-82227-gdb23fde Copyright (c) 2000-2016 the FFmpeg developers
  built with gcc 5.4.0 (Ubuntu 5.4.0-6ubuntu1~16.04.2) 20160609
  configuration: --prefix=/home/jaroslav/ffmpeg_build --pkg-config-flags=--static --extra-cflags=-I/home/jaroslav/ffmpeg_build/include --extra-ldflags=-L/home/jaroslav/ffmpeg_build/lib --bindir=/home/jaroslav/bin --enable-gpl --enable-libass --enable-libfdk-aac --enable-libfreetype --enable-libmp3lame --enable-libopus --enable-libtheora --enable-libvorbis --enable-libvpx --enable-libx264 --enable-libx265 --enable-nvenc --enable-libmfx --enable-libxvid --enable-libgsm --enable-libopencore-amrnb --enable-version3 --enable-nonfree
  libavutil      55. 35.100 / 55. 35.100
  libavcodec     57. 66.101 / 57. 66.101
  libavformat    57. 57.100 / 57. 57.100
  libavdevice    57.  2.100 / 57.  2.100
  libavfilter     6. 66.100 /  6. 66.100
  libswscale      4.  3.100 /  4.  3.100
  libswresample   2.  4.100 /  2.  4.100
  libpostproc    54.  2.100 / 54.  2.100
Input #0, yuv4mpegpipe, from 'Input/y4m/old_town_cross_2160p50.y4m':
  Duration: 00:00:10.00, start: 0.000000, bitrate: 4976642 kb/s
    Stream #0:0: Video: rawvideo (I420 / 0x30323449), yuv420p(progressive), 3840x2160, SAR 1:1 DAR 16:9, 50 fps, 50 tbr, 50 tbn, 50 tbc
[h264_nvenc @ 0x3eef120] The variable bitrate rate-control requires the 'qmin' and/or 'qmax' option set.
Output #0, matroska, to 'Output/NVENCh264/encoded/old_town_cross_2160p50llhp4000k.mkv':
  Metadata:
    encoder         : Lavf57.57.100
    Stream #0:0: Video: h264 (h264_nvenc) (Main) (H264 / 0x34363248), yuv420p, 3840x2160 [SAR 1:1 DAR 16:9], q=-1--1, 4000 kb/s, 50 fps, 1k tbn, 50 tbc
    Metadata:
      encoder         : Lavc57.66.101 h264_nvenc
    Side data:
      cpb: bitrate max/min/avg: 0/0/4000000 buffer size: 8000000 vbv_delay: -1
Stream mapping:
  Stream #0:0 -> #0:0 (rawvideo (native) -> h264 (h264_nvenc))
Press [q] to stop, [?] for help
frame=   20 fps=0.0 q=0.0 size=       0kB time=00:00:00.00 bitrate=N/A speed=   0x    frame=   38 fps= 36 q=41.0 size=       1kB time=00:00:00.14 bitrate=  42.4kbits/s speed=0.135x    frame=   56 fps= 36 q=39.0 size=       1kB time=00:00:00.50 bitrate=  11.9kbits/s speed=0.322x    frame=   74 fps= 36 q=39.0 size=       1kB time=00:00:00.86 bitrate=   6.9kbits/s speed=0.417x    frame=   92 fps= 36 q=36.0 size=       1kB time=00:00:01.22 bitrate=   4.9kbits/s speed=0.473x    frame=  110 fps= 36 q=37.0 size=       1kB time=00:00:01.58 bitrate=   3.8kbits/s speed=0.51x    frame=  128 fps= 35 q=38.0 size=       1kB time=00:00:01.94 bitrate=   3.1kbits/s speed=0.537x    frame=  145 fps= 34 q=36.0 size=       1kB time=00:00:02.28 bitrate=   2.6kbits/s speed=0.53x    frame=  163 fps= 34 q=36.0 size=       1kB time=00:00:02.64 bitrate=   2.3kbits/s speed=0.547x    frame=  181 fps= 34 q=36.0 size=       1kB time=00:00:03.00 bitrate=   2.0kbits/s speed=0.562x    frame=  199 fps= 34 q=35.0 size=       1kB time=00:00:03.36 bitrate=   1.8kbits/s speed=0.574x    frame=  217 fps= 34 q=35.0 size=       1kB time=00:00:03.72 bitrate=   1.6kbits/s speed=0.585x    frame=  235 fps= 34 q=35.0 size=       1kB time=00:00:04.08 bitrate=   1.5kbits/s speed=0.593x    frame=  253 fps= 34 q=35.0 size=       1kB time=00:00:04.44 bitrate=   1.3kbits/s speed=0.601x    frame=  271 fps= 34 q=36.0 size=       1kB time=00:00:04.80 bitrate=   1.2kbits/s speed=0.607x    frame=  289 fps= 34 q=35.0 size=    2348kB time=00:00:05.16 bitrate=3727.7kbits/s speed=0.612x    frame=  307 fps= 34 q=41.0 size=    2348kB time=00:00:05.52 bitrate=3484.7kbits/s speed=0.618x    frame=  325 fps= 34 q=41.0 size=    2348kB time=00:00:05.88 bitrate=3271.3kbits/s speed=0.623x    frame=  343 fps= 34 q=37.0 size=    2348kB time=00:00:06.24 bitrate=3082.6kbits/s speed=0.627x    frame=  361 fps= 34 q=36.0 size=    2348kB time=00:00:06.60 bitrate=2914.5kbits/s speed=0.63x    frame=  379 fps= 34 q=36.0 size=    2348kB time=00:00:06.96 bitrate=2763.8kbits/s speed=0.633x    frame=  387 fps= 33 q=36.0 size=    2348kB time=00:00:07.12 bitrate=2701.7kbits/s speed=0.616x    frame=  405 fps= 34 q=36.0 size=    2348kB time=00:00:07.48 bitrate=2571.7kbits/s speed=0.619x    frame=  423 fps= 34 q=36.0 size=    2348kB time=00:00:07.84 bitrate=2453.6kbits/s speed=0.623x    frame=  441 fps= 34 q=36.0 size=    2348kB time=00:00:08.20 bitrate=2345.9kbits/s speed=0.626x    frame=  459 fps= 34 q=36.0 size=    2348kB time=00:00:08.56 bitrate=2247.3kbits/s speed=0.629x    frame=  477 fps= 34 q=36.0 size=    2348kB time=00:00:08.92 bitrate=2156.6kbits/s speed=0.632x    frame=  487 fps= 33 q=36.0 size=    2348kB time=00:00:09.12 bitrate=2109.3kbits/s speed=0.623x    frame=  500 fps= 33 q=37.0 Lsize=    4792kB time=00:00:09.98 bitrate=3933.0kbits/s speed=0.663x    
video:4788kB audio:0kB subtitle:0kB other streams:0kB global headers:0kB muxing overhead: 0.088463%
bench: utime=1.136s
bench: maxrss=1408788kB
